<?xml version="1.0" encoding="utf-8"?>
<!-- Generator: Adobe Illustrator 23.0.2, SVG Export Plug-In . SVG Version: 6.00 Build 0)  -->
<svg version="1.1" id="Layer_1" xmlns="http://www.w3.org/2000/svg" xmlns:xlink="http://www.w3.org/1999/xlink" x="0px" y="0px"
	 width="143.6px" height="45.4px" viewBox="0 0 143.6 45.4" style="enable-background:new 0 0 143.6 45.4;" xml:space="preserve">
<style type="text/css">
	.st0{fill:#255693;}
</style>
<title>logo</title>
<g>
	<g>
		<rect x="25.3" y="0.5" class="st0" width="6.1" height="25.4"/>
		<polygon class="st0" points="14.1,0.5 6.1,11.1 6.1,0.5 0,0.5 0,25.8 6.1,25.8 6.1,14.2 14.4,25.8 22.5,25.8 12.5,12.8 21.7,0.5 
					"/>
		<path class="st0" d="M45.3,0.6H36v25.4h6.1v-7.8h3c3.6,0,9.9-2.2,9.9-9.2C54.9,1.9,49.2,0.6,45.3,0.6 M42.3,12.8V5.5
			c0,0,6.1-0.8,6.1,3.6C48.4,13.6,42.3,12.8,42.3,12.8"/>
		<path class="st0" d="M66.4,0.6h-9.2v25.4h6.1v-7.8h3c3.6,0,9.9-2.2,9.9-9.2C76.1,1.9,70.4,0.6,66.4,0.6 M63.5,12.8V5.5
			c0,0,6.1-0.8,6.1,3.6C69.7,13.6,63.5,12.8,63.5,12.8"/>
		<path class="st0" d="M143.6,5.9c0,3.2-2.6,5.9-5.7,5.9c-3.1,0-5.7-2.6-5.7-5.9c0-3.2,2.6-5.9,5.7-5.9S143.6,2.7,143.6,5.9"/>
		<path class="st0" d="M143.6,20.4c0,3.2-2.6,5.9-5.7,5.9c-3.1,0-5.7-2.6-5.7-5.9c0-3.2,2.6-5.9,5.7-5.9
			C141,14.6,143.6,17.2,143.6,20.4"/>
		<path class="st0" d="M94.4,26c-2.7,0-5.1-0.1-7.4-0.2V0.4c1.9-0.1,5.2-0.2,8.5-0.2c7.5,0,12.5,3.3,12.5,12.4
			C107.9,21.3,102.5,26,94.4,26z M95.1,5.1c-1,0-1.8,0-2.3,0.1v15.6c0.5,0.1,1.3,0.2,2.2,0.2c4,0,6.9-2.5,6.9-7.9
			C101.8,8.2,100.3,5.1,95.1,5.1z"/>
		<path class="st0" d="M122.7,26.2c-9.2,0-11.7-6.4-11.7-12.2c0-8.2,4.4-13.9,12.7-13.9c1.8,0,3.6,0.2,5.1,0.6l-0.6,5.3
			c-1.4-0.4-3-0.6-4.5-0.6c-4,0-6.2,3-6.2,7.6c0,5,2,7.8,6.5,7.8c1.3,0,3.1-0.3,4.4-0.9l0.6,5.2C127.1,25.8,124.8,26.2,122.7,26.2z"
			/>
	</g>
	<g>
		<path class="st0" d="M2.8,39.8H1.3v5.3H0V32.5h3.1c2.6,0,4.1,1.3,4.1,3.6C7.3,38.5,5.4,39.8,2.8,39.8z M3.1,33.6H1.3v5.1h1.6
			c1.9,0,3.1-0.8,3.1-2.6C6,34.5,4.9,33.6,3.1,33.6z"/>
		<path class="st0" d="M14.7,45.3c-3,0-4.7-1.9-4.7-4.9v-7.9h1.3v7.8c0,2.3,1.1,4,3.5,4c2.3,0,3.5-1.5,3.5-3.9v-7.8h1.3v7.8
			C19.5,43.4,17.7,45.3,14.7,45.3z"/>
		<path class="st0" d="M26,45.1h-2.9V32.5H26c2.6,0,3.9,1.3,3.9,3.1c0,1.4-0.8,2.3-1.9,2.7c1.5,0.4,2.5,1.4,2.5,3.1
			C30.4,43.9,28.7,45.1,26,45.1z M25.9,33.6h-1.6v4.4h1.6c1.8,0,2.7-1,2.7-2.3C28.7,34.4,27.8,33.6,25.9,33.6z M26,39h-1.7v5h1.8
			c1.9,0,3.1-0.9,3.1-2.5C29.2,39.8,28,39,26,39z"/>
		<path class="st0" d="M33.5,45.1V32.5h1.3V44h4.8l0.2,1.1H33.5z"/>
		<path class="st0" d="M42.6,45.1V32.5h1.3v12.6H42.6z"/>
		<path class="st0" d="M53,45.4c-3.4,0-5.7-2.7-5.7-6.5s2.3-6.5,5.8-6.5c1.5,0,2.6,0.4,3.6,1l-0.2,1.3c-1-0.7-2.1-1.2-3.4-1.2
			c-2.7,0-4.5,2.2-4.5,5.4c0,3.2,1.7,5.4,4.4,5.4c1.4,0,2.6-0.6,3.6-1.3l0.2,1.2C55.9,44.8,54.5,45.4,53,45.4z"/>
		<path class="st0" d="M67.3,45.3c-1.4,0-2.5-0.3-3.3-0.8l0.2-1.3c0.8,0.5,1.9,1,3.2,1c1.5,0,2.6-0.8,2.6-2.3c0-1.2-0.6-1.9-2.5-2.7
			c-2.4-1-3.3-1.9-3.3-3.6c0-1.9,1.5-3.1,3.6-3.1c1.2,0,2.1,0.2,2.7,0.6l-0.2,1.3c-0.7-0.5-1.6-0.8-2.7-0.8c-1.5,0-2.3,0.9-2.3,2
			c0,1.1,0.6,1.7,2.5,2.5c2.3,1,3.3,1.9,3.3,3.8C71.2,43.9,69.5,45.3,67.3,45.3z"/>
		<path class="st0" d="M79.4,45.4c-3.4,0-5.7-2.7-5.7-6.5s2.3-6.5,5.8-6.5c1.5,0,2.6,0.4,3.6,1l-0.2,1.3c-1-0.7-2.1-1.2-3.4-1.2
			c-2.7,0-4.5,2.2-4.5,5.4c0,3.2,1.7,5.4,4.4,5.4c1.4,0,2.6-0.6,3.6-1.3l0.2,1.2C82.4,44.8,80.9,45.4,79.4,45.4z"/>
		<path class="st0" d="M94.6,45.1v-6.1h-7v6.1h-1.2V32.5h1.3v5.4h7v-5.4H96v12.6H94.6z"/>
		<path class="st0" d="M104.8,45.4c-3.4,0-5.7-2.7-5.7-6.5s2.3-6.5,5.7-6.5s5.7,2.7,5.7,6.5C110.5,42.6,108.2,45.4,104.8,45.4z
			 M104.9,33.4c-2.7,0-4.4,2.2-4.4,5.4c0,3.2,1.8,5.4,4.4,5.4c2.7,0,4.4-2.2,4.4-5.4C109.2,35.6,107.5,33.4,104.9,33.4z"/>
		<path class="st0" d="M118.9,45.4c-3.4,0-5.7-2.7-5.7-6.5s2.3-6.5,5.7-6.5c3.4,0,5.7,2.7,5.7,6.5C124.6,42.6,122.3,45.4,118.9,45.4
			z M118.9,33.4c-2.7,0-4.4,2.2-4.4,5.4c0,3.2,1.8,5.4,4.4,5.4c2.7,0,4.4-2.2,4.4-5.4C123.3,35.6,121.6,33.4,118.9,33.4z"/>
		<path class="st0" d="M127.9,45.1V32.5h1.3V44h4.8l0.2,1.1H127.9z"/>
		<path class="st0" d="M139.6,45.3c-1.4,0-2.5-0.3-3.3-0.8l0.2-1.3c0.8,0.5,1.9,1,3.2,1c1.5,0,2.6-0.8,2.6-2.3
			c0-1.2-0.6-1.9-2.5-2.7c-2.4-1-3.3-1.9-3.3-3.6c0-1.9,1.5-3.1,3.6-3.1c1.2,0,2.1,0.2,2.7,0.6l-0.2,1.3c-0.7-0.5-1.6-0.8-2.7-0.8
			c-1.5,0-2.3,0.9-2.3,2c0,1.1,0.6,1.7,2.5,2.5c2.3,1,3.3,1.9,3.3,3.8C143.6,43.9,141.9,45.3,139.6,45.3z"/>
	</g>
</g>
</svg>
